<svg width="25" height="25" viewBox="0 0 25 25" fill="none" xmlns="http://www.w3.org/2000/svg">
<path d="M22.3415 25H17.9764C17.7888 25 17.6088 24.9252 17.4761 24.792C17.3434 24.6588 17.2689 24.4781 17.2689 24.2898C17.2689 24.1014 17.3434 23.9208 17.4761 23.7876C17.6088 23.6544 17.7888 23.5795 17.9764 23.5795H22.3415C23.0274 23.5795 23.5849 22.9507 23.5849 22.178V13.9308C23.5816 12.8385 23.1663 11.7879 22.4226 10.9904L14.3453 2.24892C14.1131 1.98827 13.8287 1.77975 13.5107 1.63699C13.1927 1.49423 12.8483 1.42043 12.5 1.42043C12.1517 1.42043 11.8073 1.49423 11.4893 1.63699C11.1713 1.77975 10.8869 1.98827 10.6547 2.24892L2.57736 10.9904C1.83369 11.7879 1.41843 12.8385 1.41509 13.9308V22.178C1.41509 22.9507 1.97264 23.5795 2.65849 23.5795H7.02358C7.69151 23.5795 8.23491 22.9668 8.23491 22.2131V17.1515C8.23491 15.9062 9.19434 14.8929 10.3726 14.8929H14.6274C15.8057 14.8929 16.7651 15.9062 16.7651 17.1515V18.7301C16.7651 18.9184 16.6905 19.0991 16.5579 19.2323C16.4252 19.3655 16.2452 19.4403 16.0575 19.4403C15.8699 19.4403 15.6899 19.3655 15.5572 19.2323C15.4245 19.0991 15.35 18.9184 15.35 18.7301V17.1515C15.35 16.6893 15.0255 16.3134 14.6274 16.3134H10.3774C9.97925 16.3134 9.65472 16.6922 9.65472 17.1515V22.2131C9.65 23.75 8.4717 25 7.02358 25H2.65849C1.19245 25 0 23.7339 0 22.178V13.9308C0.002699 12.48 0.553208 11.0841 1.54057 10.0245L9.61698 1.283C9.98169 0.878985 10.4266 0.5561 10.9232 0.33513C11.4197 0.114159 11.9569 0 12.5 0C13.0431 0 13.5803 0.114159 14.0768 0.33513C14.5734 0.5561 15.0183 0.878985 15.383 1.283L23.4594 10.0245C24.4468 11.0841 24.9973 12.48 25 13.9308V22.178C25 23.7339 23.8075 25 22.3415 25Z" fill="url(#paint0_linear_424_68)"/>
<defs>
<linearGradient id="paint0_linear_424_68" x1="25" y1="0" x2="2.98023e-06" y2="25" gradientUnits="userSpaceOnUse">
<stop stop-color="#F39A15"/>
<stop offset="1" stop-color="#A903D2"/>
</linearGradient>
</defs>
</svg>
