<svg width="38" height="38" viewBox="0 0 38 38" fill="none" xmlns="http://www.w3.org/2000/svg">
<path d="M15.3165 37.4174C24.8839 39.919 34.7261 34.129 37.3503 24.572C39.9745 15.0151 34.4176 5.19864 24.8503 2.69705C15.2829 0.195456 5.44066 5.98543 2.81645 15.5424C0.192246 25.0993 5.74919 34.9158 15.3165 37.4174Z" fill="#021024" fill-opacity="0.1"/>
<path d="M35.2205 23.2412C32.7426 32.265 23.4718 37.6813 14.5135 35.339C5.55522 32.9966 0.301726 23.7826 2.77953 14.7588C5.25733 5.73503 14.5281 0.318677 23.4865 2.66103C32.4448 5.00338 37.6983 14.2174 35.2205 23.2412Z" fill="#4B152D"/>
<path fill-rule="evenodd" clip-rule="evenodd" d="M36.2669 23.5148C33.6427 33.0718 23.8005 38.8618 14.2331 36.3602C4.66579 33.8586 -0.891161 24.0421 1.73305 14.4852C4.35726 4.92823 14.1995 -0.861752 23.7669 1.63984C33.3342 4.14144 38.8911 13.9579 36.2669 23.5148ZM14.5135 35.339C23.4718 37.6813 32.7426 32.265 35.2205 23.2412C37.6983 14.2174 32.4448 5.00338 23.4865 2.66103C14.5281 0.318677 5.25733 5.73503 2.77953 14.7588C0.301726 23.7826 5.55522 32.9966 14.5135 35.339Z" fill="#B704B0"/>
<path d="M34.1371 22.184C31.6593 31.2078 22.3885 36.6241 13.4301 34.2818C4.47184 31.9394 -0.781655 22.7254 1.69615 13.7016C4.17395 4.67782 13.4448 -0.738533 22.4031 1.60382C31.3614 3.94617 36.6149 13.1602 34.1371 22.184Z" fill="#640D57"/>
<path fill-rule="evenodd" clip-rule="evenodd" d="M35.1835 22.4576C32.5593 32.0146 22.7171 37.8045 13.1497 35.303C3.58241 32.8014 -1.97454 22.9849 0.649667 13.428C3.27388 3.87102 13.1161 -1.91896 22.6835 0.582633C32.2508 3.08423 37.8078 12.9007 35.1835 22.4576ZM13.4301 34.2818C22.3885 36.6241 31.6593 31.2078 34.1371 22.184C36.6149 13.1602 31.3614 3.94617 22.4031 1.60382C13.4448 -0.738533 4.17395 4.67782 1.69615 13.7016C-0.781655 22.7254 4.47184 31.9394 13.4301 34.2818Z" fill="#B704B0"/>
<path d="M30.9976 21.3631C28.9844 28.6949 21.4958 33.1072 14.2714 31.2182C7.04691 29.3292 2.82237 21.8543 4.83559 14.5225C6.8488 7.19066 14.3374 2.77838 21.5619 4.66738C28.7863 6.55637 33.0108 14.0313 30.9976 21.3631Z" fill="#220B1E"/>
<path fill-rule="evenodd" clip-rule="evenodd" d="M32.0441 21.6367C29.8865 29.4944 21.8317 34.2895 13.9909 32.2394C6.15024 30.1893 1.63149 22.1065 3.78911 14.2488C5.94672 6.39117 14.0015 1.59606 21.8423 3.64619C29.683 5.69632 34.2017 13.7791 32.0441 21.6367ZM14.2714 31.2182C21.4958 33.1072 28.9844 28.6949 30.9976 21.3631C33.0108 14.0313 28.7863 6.55637 21.5619 4.66738C14.3374 2.77838 6.8488 7.19066 4.83559 14.5225C2.82237 21.8543 7.04691 29.3292 14.2714 31.2182Z" fill="#461236"/>
<path fill-rule="evenodd" clip-rule="evenodd" d="M27.9727 8.5302C26.4844 7.23589 24.6843 6.25774 22.6453 5.72458C15.4208 3.83559 7.9322 8.24787 5.91899 15.5797C4.61987 20.3109 5.91819 25.1016 8.94393 28.4126C5.15912 25.1211 3.39059 19.7849 4.83559 14.5225C6.8488 7.19066 14.3374 2.77838 21.5619 4.66738C24.1244 5.33741 26.3095 6.71024 27.9727 8.5302Z" fill="#BAB296"/>
<path d="M27.4414 23.8272C27.6177 24.2044 27.4473 24.6497 27.0608 24.8217C26.6742 24.9937 26.2179 24.8274 26.0416 24.4502C25.8653 24.0731 26.0357 23.6278 26.4223 23.4558C26.8088 23.2837 27.2651 23.45 27.4414 23.8272Z" fill="#640D57"/>
<path d="M30.5398 20.798C30.7161 21.1752 30.5456 21.6204 30.1591 21.7925C29.7726 21.9645 29.3163 21.7982 29.14 21.421C28.9637 21.0438 29.1341 20.5986 29.5206 20.4265C29.9072 20.2545 30.3634 20.4208 30.5398 20.798Z" fill="#640D57"/>
<path d="M26.7889 20.4932C26.9652 20.8704 26.7947 21.3157 26.4082 21.4877C26.0217 21.6598 25.5654 21.4935 25.3891 21.1163C25.2128 20.7391 25.3832 20.2938 25.7697 20.1218C26.1563 19.9497 26.6125 20.116 26.7889 20.4932Z" fill="#640D57"/>
<path d="M28.3622 21.6048C28.485 21.8675 28.3663 22.1776 28.0971 22.2974C27.8279 22.4172 27.5102 22.3014 27.3874 22.0387C27.2646 21.776 27.3833 21.4659 27.6525 21.3461C27.9217 21.2263 28.2394 21.3421 28.3622 21.6048Z" fill="#640D57"/>
<path d="M28.1538 19.3111C28.2766 19.5738 28.1579 19.8839 27.8887 20.0037C27.6196 20.1235 27.3018 20.0077 27.179 19.745C27.0562 19.4823 27.1749 19.1722 27.4441 19.0524C27.7133 18.9326 28.0311 19.0484 28.1538 19.3111Z" fill="#640D57"/>
<path d="M30.6008 18.7965C30.7236 19.0592 30.6049 19.3693 30.3357 19.4891C30.0665 19.6089 29.7488 19.4931 29.626 19.2304C29.5032 18.9677 29.6219 18.6576 29.8911 18.5378C30.1603 18.418 30.478 18.5338 30.6008 18.7965Z" fill="#640D57"/>
<path d="M30.9169 15.5324C31.0397 15.7951 30.921 16.1052 30.6518 16.225C30.3826 16.3448 30.0649 16.229 29.9421 15.9663C29.8193 15.7036 29.938 15.3936 30.2072 15.2737C30.4764 15.1539 30.7942 15.2697 30.9169 15.5324Z" fill="#640D57"/>
<path d="M29.2588 17.67C29.3816 17.9327 29.2629 18.2428 28.9937 18.3626C28.7246 18.4824 28.4068 18.3666 28.284 18.1039C28.1612 17.8412 28.2799 17.5311 28.5491 17.4113C28.8183 17.2915 29.1361 17.4073 29.2588 17.67Z" fill="#640D57"/>
<path d="M29.6969 23C29.8197 23.2627 29.701 23.5728 29.4318 23.6926C29.1626 23.8124 28.8449 23.6966 28.7221 23.4339C28.5993 23.1712 28.718 22.8611 28.9872 22.7413C29.2564 22.6215 29.5741 22.7373 29.6969 23Z" fill="#640D57"/>
<path d="M27.2602 26.085C27.3737 26.3278 27.264 26.6144 27.0152 26.7251C26.7664 26.8358 26.4727 26.7288 26.3593 26.486C26.2458 26.2432 26.3555 25.9567 26.6043 25.8459C26.8531 25.7352 27.1467 25.8422 27.2602 26.085Z" fill="#640D57"/>
<path d="M28.4256 24.7733C28.495 24.9218 28.4279 25.0972 28.2757 25.1649C28.1235 25.2327 27.9438 25.1672 27.8744 25.0187C27.8049 24.8701 27.872 24.6948 28.0243 24.627C28.1765 24.5593 28.3562 24.6247 28.4256 24.7733Z" fill="#640D57"/>
<path d="M26.2844 22.3532C26.3788 22.5552 26.2875 22.7937 26.0804 22.8859C25.8734 22.9781 25.6289 22.889 25.5345 22.6869C25.44 22.4849 25.5313 22.2463 25.7384 22.1542C25.9455 22.062 26.1899 22.1511 26.2844 22.3532Z" fill="#640D57"/>
<path d="M29.4181 16.0079C29.5125 16.21 29.4212 16.4485 29.2141 16.5406C29.0071 16.6328 28.7626 16.5437 28.6682 16.3417C28.5737 16.1396 28.665 15.9011 28.8721 15.8089C29.0792 15.7167 29.3236 15.8058 29.4181 16.0079Z" fill="#640D57"/>
<path d="M30.6547 17.4908C30.7492 17.6929 30.6579 17.9314 30.4508 18.0236C30.2438 18.1157 29.9993 18.0266 29.9049 17.8246C29.8104 17.6225 29.9017 17.384 30.1088 17.2918C30.3159 17.1996 30.5603 17.2887 30.6547 17.4908Z" fill="#640D57"/>
<path d="M25.7562 25.196C25.8507 25.398 25.7594 25.6366 25.5523 25.7287C25.3452 25.8209 25.1008 25.7318 25.0063 25.5297C24.9119 25.3277 25.0032 25.0891 25.2103 24.997C25.4173 24.9048 25.6618 24.9939 25.7562 25.196Z" fill="#640D57"/>
<path d="M25.5229 27.5393C25.6174 27.7414 25.5261 27.9799 25.319 28.0721C25.1119 28.1643 24.8675 28.0752 24.773 27.8731C24.6786 27.671 24.7699 27.4325 24.9769 27.3404C25.184 27.2482 25.4285 27.3373 25.5229 27.5393Z" fill="#640D57"/>
<path fill-rule="evenodd" clip-rule="evenodd" d="M3.0409 12.8876C2.76065 12.7854 2.61837 12.4809 2.72309 12.2074C4.59287 7.32465 8.78016 3.5458 13.9806 2.14518C14.269 2.06751 14.5673 2.23268 14.6469 2.5141C14.7265 2.79552 14.5572 3.08662 14.2688 3.16429C9.40575 4.47405 5.48707 8.0098 3.73794 12.5775C3.63322 12.8509 3.32114 12.9898 3.0409 12.8876Z" fill="#FFE9B0"/>
<path fill-rule="evenodd" clip-rule="evenodd" d="M31.4135 25.9536C31.6664 26.1095 31.7419 26.436 31.5822 26.6828C30.315 28.6402 28.6349 30.3175 26.6611 31.5981C26.4119 31.7597 26.0757 31.6937 25.91 31.4506C25.7444 31.2075 25.8121 30.8794 26.0612 30.7177C27.9082 29.5194 29.4806 27.9497 30.6662 26.1182C30.826 25.8713 31.1605 25.7976 31.4135 25.9536Z" fill="#FFF8DD"/>
<path fill-rule="evenodd" clip-rule="evenodd" d="M9.00821 5.69611L8.70773 5.25628C9.00821 5.69611 9.00821 5.69611 9.00821 5.69611L9.00626 5.69739L8.99528 5.70468C8.98503 5.71153 8.96902 5.72233 8.94778 5.73693C8.90528 5.76614 8.84194 5.81056 8.7619 5.86913C8.60167 5.9864 8.37549 6.15976 8.11647 6.38093C7.59541 6.82583 6.95588 7.45197 6.44996 8.19252C6.28401 8.43543 5.94768 8.50107 5.69876 8.33913C5.44983 8.17719 5.38257 7.84899 5.54852 7.60609C6.12599 6.76082 6.84071 6.06545 7.40305 5.5853C7.68572 5.34393 7.93353 5.15388 8.11186 5.02336C8.20111 4.95805 8.27318 4.90747 8.32379 4.87268C8.3491 4.85528 8.36907 4.8418 8.38315 4.83239L8.39981 4.82134L8.4047 4.81812L8.40627 4.81709C8.40627 4.81709 8.40725 4.81645 8.70773 5.25628L8.40627 4.81709C8.6552 4.65515 8.9925 4.72015 9.15845 4.96306C9.32433 5.20586 9.25687 5.53409 9.00821 5.69611Z" fill="#A09B8C"/>
<path fill-rule="evenodd" clip-rule="evenodd" d="M11.175 8.33913L10.8745 7.8993C11.175 8.33913 11.175 8.33913 11.175 8.33913L11.1731 8.34041L11.1621 8.34771C11.1518 8.35456 11.1358 8.36535 11.1146 8.37995C11.0721 8.40917 11.0087 8.45358 10.9287 8.51215C10.7685 8.62942 10.5423 8.80278 10.2833 9.02395C9.76221 9.46886 9.12268 10.095 8.61675 10.8355C8.4508 11.0785 8.11448 11.1441 7.86555 10.9822C7.61662 10.8202 7.54936 10.492 7.71531 10.2491C8.29278 9.40384 9.0075 8.70847 9.56984 8.22832C9.85252 7.98696 10.1003 7.7969 10.2787 7.66639C10.3679 7.60107 10.44 7.5505 10.4906 7.5157C10.5159 7.4983 10.5359 7.48483 10.5499 7.47542L10.5666 7.46436L10.5715 7.46114L10.5731 7.46011C10.5731 7.46011 10.574 7.45948 10.8745 7.8993L10.5731 7.46011C10.822 7.29817 11.1593 7.36318 11.3252 7.60609C11.4911 7.84889 11.4237 8.17711 11.175 8.33913Z" fill="white"/>
<path fill-rule="evenodd" clip-rule="evenodd" d="M13.8292 10.252L25.3945 16.671L23.6883 18.6216L12.1229 12.2026L13.8292 10.252Z" fill="url(#paint0_linear_391_452)"/>
<path fill-rule="evenodd" clip-rule="evenodd" d="M14.2464 11.133V24.3482H11.5921V11.133H14.2464Z" fill="url(#paint1_linear_391_452)"/>
<path fill-rule="evenodd" clip-rule="evenodd" d="M12.1229 23.2785L23.6883 16.8596L25.3945 18.8102L13.8292 25.2292L12.1229 23.2785Z" fill="url(#paint2_linear_391_452)"/>
<path d="M24.8637 19.0621C25.7432 19.0621 26.4563 18.4704 26.4563 17.7406C26.4563 17.0107 25.7432 16.4191 24.8637 16.4191C23.9841 16.4191 23.2711 17.0107 23.2711 17.7406C23.2711 18.4704 23.9841 19.0621 24.8637 19.0621Z" fill="#FFE9AD"/>
<path d="M14.2464 11.133C14.2464 11.8629 13.6522 12.4545 12.9192 12.4545C12.1863 12.4545 11.5921 11.8629 11.5921 11.133C11.5921 10.4032 12.1863 9.81153 12.9192 9.81153C13.6522 9.81153 14.2464 10.4032 14.2464 11.133Z" fill="#FFE9AD"/>
<path d="M12.9192 25.6697C13.6522 25.6697 14.2464 25.078 14.2464 24.3482C14.2464 23.6183 13.6522 23.0266 12.9192 23.0266C12.1863 23.0266 11.5921 23.6183 11.5921 24.3482C11.5921 25.078 12.1863 25.6697 12.9192 25.6697Z" fill="#FFE9AD"/>
<path d="M22.9677 18.7978L23.553 20.3411L25.1345 20.9122L23.553 21.4833L22.9677 23.0266L22.3825 21.4833L20.8009 20.9122L22.3825 20.3411L22.9677 18.7978Z" fill="white"/>
<path d="M11.8629 1.88246L12.6676 4.00454L14.8423 4.78978L12.6676 5.57502L11.8629 7.69711L11.0582 5.57502L8.88357 4.78978L11.0582 4.00454L11.8629 1.88246Z" fill="white"/>
<defs>
<linearGradient id="paint0_linear_391_452" x1="2.4427" y1="4.42815" x2="38.8853" y2="28.5427" gradientUnits="userSpaceOnUse">
<stop stop-color="#0154F7"/>
<stop offset="1" stop-color="#04F8E9"/>
</linearGradient>
<linearGradient id="paint1_linear_391_452" x1="19.0949" y1="0" x2="19.0949" y2="38" gradientUnits="userSpaceOnUse">
<stop stop-color="#12EDFC"/>
<stop offset="1" stop-color="#05FB2D"/>
</linearGradient>
<linearGradient id="paint2_linear_391_452" x1="35.5573" y1="4.42812" x2="-2.15713" y2="25.2327" gradientUnits="userSpaceOnUse">
<stop stop-color="#F309D3"/>
<stop offset="1" stop-color="#1724E4"/>
</linearGradient>
</defs>
</svg>
