<svg width="29" height="30" viewBox="0 0 29 30" fill="none" xmlns="http://www.w3.org/2000/svg">
<path fill-rule="evenodd" clip-rule="evenodd" d="M9.09547 0C9.6488 0 10.0955 0.448 10.0955 1C10.0955 1.43467 10.4648 1.788 10.9195 1.788H12.3288C14.4261 1.79467 16.1395 3.48 16.1488 5.54533L16.1489 5.83601C17.5101 5.84307 18.88 5.85778 20.2533 5.88013C25.1213 5.88013 28.6667 9.3588 28.6667 14.1495V20.3495C28.6667 25.1361 25.1267 28.6135 20.2453 28.6175C18.288 28.6495 16.3147 28.6668 14.3387 28.6668C12.3613 28.6668 10.3813 28.6495 8.41333 28.6175C3.54533 28.6175 0 25.1388 0 20.3495V14.1495C0 9.3588 3.54533 5.88013 8.43067 5.88013C10.3036 5.84815 12.2145 5.83182 14.1483 5.83115L14.1488 5.55067C14.1448 4.58533 13.3261 3.792 12.3248 3.788H10.9195C9.36347 3.788 8.09547 2.53733 8.09547 1C8.09547 0.448 8.54347 0 9.09547 0ZM14.268 7.8308C12.3 7.8308 10.356 7.84813 8.44667 7.88013C4.704 7.88013 2 10.5175 2 14.1495V20.3495C2 23.9801 4.704 26.6175 8.43067 26.6175C12.36 26.6828 16.3213 26.6828 20.22 26.6175H20.2373C23.9627 26.6175 26.6667 23.9801 26.6667 20.3495V14.1495C26.6667 10.5175 23.9627 7.88013 20.2373 7.88013C18.232 7.84813 16.2387 7.8308 14.268 7.8308ZM10.1305 13.7529C10.6825 13.7529 11.1305 14.2009 11.1305 14.7529L11.1293 16.248L12.6781 16.2488C13.2301 16.2488 13.6781 16.6968 13.6781 17.2488C13.6781 17.8008 13.2301 18.2488 12.6781 18.2488L11.1293 18.248L11.1305 19.7463C11.1305 20.2983 10.6825 20.7463 10.1305 20.7463C9.57853 20.7463 9.13053 20.2983 9.13053 19.7463L9.12933 18.248L7.58347 18.2488C7.03147 18.2488 6.58347 17.8008 6.58347 17.2488C6.58347 16.6968 7.03147 16.2488 7.58347 16.2488L9.12933 16.248L9.13053 14.7529C9.13053 14.2009 9.57853 13.7529 10.1305 13.7529ZM21.2393 18.6707C21.7913 18.6707 22.2393 19.1187 22.2393 19.6707C22.2393 20.2227 21.7913 20.6707 21.2393 20.6707H21.0967C20.5447 20.6707 20.0967 20.2227 20.0967 19.6707C20.0967 19.1187 20.5447 18.6707 21.0967 18.6707H21.2393ZM18.8213 13.9051C19.3733 13.9051 19.8213 14.3531 19.8213 14.9051C19.8213 15.4571 19.3733 15.9051 18.8213 15.9051H18.6787C18.1267 15.9051 17.6787 15.4571 17.6787 14.9051C17.6787 14.3531 18.1267 13.9051 18.6787 13.9051H18.8213Z" fill="#A4A4A4"/>
</svg>
