<svg width="438" height="128" viewBox="0 0 438 128" fill="none" xmlns="http://www.w3.org/2000/svg">
<g filter="url(#filter0_d_395_1724)">
<rect width="430" height="120" transform="translate(4)" fill="#0C0517"/>
<mask id="mask0_395_1724" style="mask-type:alpha" maskUnits="userSpaceOnUse" x="4" y="0" width="430" height="120">
<rect x="4" width="430" height="120" fill="url(#paint0_linear_395_1724)"/>
</mask>
<g mask="url(#mask0_395_1724)">
<g opacity="0.5" filter="url(#filter1_f_395_1724)">
<mask id="path-2-inside-1_395_1724" fill="white">
<ellipse cx="328.48" cy="-3.25961" rx="54.6499" ry="50.7248" transform="rotate(90 328.48 -3.25961)"/>
</mask>
<path d="M328.48 -1.60967C329.289 -1.60967 330.094 -1.41502 330.713 -1.13288C331.281 -0.874159 331.486 -0.641528 331.458 -0.67196C331.376 -0.760256 330.755 -1.54355 330.755 -3.25961L224.755 -3.25962C224.755 52.4045 267.544 104.39 328.48 104.39L328.48 -1.60967ZM330.755 -3.25961C330.755 -4.97567 331.376 -5.75897 331.458 -5.84726C331.486 -5.8777 331.281 -5.64506 330.713 -5.38634C330.094 -5.1042 329.289 -4.90955 328.48 -4.90955L328.48 -110.91C267.544 -110.91 224.755 -58.9238 224.755 -3.25962L330.755 -3.25961ZM328.48 -4.90955C327.671 -4.90955 326.866 -5.1042 326.247 -5.38634C325.679 -5.64506 325.474 -5.8777 325.502 -5.84726C325.584 -5.75897 326.205 -4.97567 326.205 -3.25961L432.205 -3.25961C432.205 -58.9238 389.417 -110.91 328.48 -110.91L328.48 -4.90955ZM326.205 -3.25961C326.205 -1.54355 325.584 -0.760256 325.502 -0.67196C325.474 -0.641528 325.679 -0.874159 326.247 -1.13288C326.866 -1.41502 327.671 -1.60967 328.48 -1.60967L328.48 104.39C389.416 104.39 432.205 52.4046 432.205 -3.25961L326.205 -3.25961Z" fill="url(#paint1_linear_395_1724)" mask="url(#path-2-inside-1_395_1724)"/>
</g>
<g opacity="0.5" filter="url(#filter2_f_395_1724)">
<ellipse cx="79.9283" cy="115.48" rx="19.8727" ry="18.4454" transform="rotate(90 79.9283 115.48)" fill="url(#paint2_linear_395_1724)"/>
</g>
<g opacity="0.5" filter="url(#filter3_f_395_1724)">
<ellipse cx="402.262" cy="92.626" rx="35.2741" ry="32.7406" transform="rotate(90 402.262 92.626)" fill="url(#paint3_linear_395_1724)"/>
</g>
<g opacity="0.5" filter="url(#filter4_f_395_1724)">
<ellipse cx="262.999" cy="39.9635" rx="54.6499" ry="50.7248" transform="rotate(90 262.999 39.9635)" fill="url(#paint4_linear_395_1724)"/>
</g>
<g opacity="0.5" filter="url(#filter5_f_395_1724)">
<ellipse cx="271.299" cy="23.5682" rx="54.6499" ry="50.7248" transform="rotate(90 271.299 23.5682)" fill="url(#paint5_linear_395_1724)"/>
</g>
<g opacity="0.5" filter="url(#filter6_f_395_1724)">
<ellipse cx="70.0248" cy="68.5715" rx="70.0248" ry="68.5715" transform="matrix(0.570551 0.821262 -0.778432 0.627729 111.759 -17.3221)" stroke="url(#paint6_linear_395_1724)" stroke-width="22"/>
</g>
</g>
</g>
<defs>
<filter id="filter0_d_395_1724" x="0" y="0" width="438" height="128" filterUnits="userSpaceOnUse" color-interpolation-filters="sRGB">
<feFlood flood-opacity="0" result="BackgroundImageFix"/>
<feColorMatrix in="SourceAlpha" type="matrix" values="0 0 0 0 0 0 0 0 0 0 0 0 0 0 0 0 0 0 127 0" result="hardAlpha"/>
<feOffset dy="4"/>
<feGaussianBlur stdDeviation="2"/>
<feComposite in2="hardAlpha" operator="out"/>
<feColorMatrix type="matrix" values="0 0 0 0 0 0 0 0 0 0 0 0 0 0 0 0 0 0 0.25 0"/>
<feBlend mode="normal" in2="BackgroundImageFix" result="effect1_dropShadow_395_1724"/>
<feBlend mode="normal" in="SourceGraphic" in2="effect1_dropShadow_395_1724" result="shape"/>
</filter>
<filter id="filter1_f_395_1724" x="257.755" y="-77.9095" width="141.45" height="149.3" filterUnits="userSpaceOnUse" color-interpolation-filters="sRGB">
<feFlood flood-opacity="0" result="BackgroundImageFix"/>
<feBlend mode="normal" in="SourceGraphic" in2="BackgroundImageFix" result="shape"/>
<feGaussianBlur stdDeviation="10" result="effect1_foregroundBlur_395_1724"/>
</filter>
<filter id="filter2_f_395_1724" x="41.4829" y="75.6071" width="76.8907" height="79.7454" filterUnits="userSpaceOnUse" color-interpolation-filters="sRGB">
<feFlood flood-opacity="0" result="BackgroundImageFix"/>
<feBlend mode="normal" in="SourceGraphic" in2="BackgroundImageFix" result="shape"/>
<feGaussianBlur stdDeviation="10" result="effect1_foregroundBlur_395_1724"/>
</filter>
<filter id="filter3_f_395_1724" x="349.521" y="37.3519" width="105.481" height="110.548" filterUnits="userSpaceOnUse" color-interpolation-filters="sRGB">
<feFlood flood-opacity="0" result="BackgroundImageFix"/>
<feBlend mode="normal" in="SourceGraphic" in2="BackgroundImageFix" result="shape"/>
<feGaussianBlur stdDeviation="10" result="effect1_foregroundBlur_395_1724"/>
</filter>
<filter id="filter4_f_395_1724" x="192.274" y="-34.6865" width="141.45" height="149.3" filterUnits="userSpaceOnUse" color-interpolation-filters="sRGB">
<feFlood flood-opacity="0" result="BackgroundImageFix"/>
<feBlend mode="normal" in="SourceGraphic" in2="BackgroundImageFix" result="shape"/>
<feGaussianBlur stdDeviation="10" result="effect1_foregroundBlur_395_1724"/>
</filter>
<filter id="filter5_f_395_1724" x="210.574" y="-41.0817" width="121.45" height="129.3" filterUnits="userSpaceOnUse" color-interpolation-filters="sRGB">
<feFlood flood-opacity="0" result="BackgroundImageFix"/>
<feBlend mode="normal" in="SourceGraphic" in2="BackgroundImageFix" result="shape"/>
<feGaussianBlur stdDeviation="5" result="effect1_foregroundBlur_395_1724"/>
</filter>
<filter id="filter6_f_395_1724" x="11.0422" y="-9.98309" width="174.582" height="186.428" filterUnits="userSpaceOnUse" color-interpolation-filters="sRGB">
<feFlood flood-opacity="0" result="BackgroundImageFix"/>
<feBlend mode="normal" in="SourceGraphic" in2="BackgroundImageFix" result="shape"/>
<feGaussianBlur stdDeviation="5" result="effect1_foregroundBlur_395_1724"/>
</filter>
<linearGradient id="paint0_linear_395_1724" x1="219" y1="0" x2="219" y2="120" gradientUnits="userSpaceOnUse">
<stop stop-color="#D9D9D9"/>
<stop offset="1" stop-color="#D9D9D9" stop-opacity="0"/>
</linearGradient>
<linearGradient id="paint1_linear_395_1724" x1="379.205" y1="51.3903" x2="270.208" y2="-49.7782" gradientUnits="userSpaceOnUse">
<stop stop-color="#A903D2"/>
<stop offset="1" stop-color="#410095"/>
</linearGradient>
<linearGradient id="paint2_linear_395_1724" x1="99.801" y1="97.0344" x2="63.0124" y2="136.67" gradientUnits="userSpaceOnUse">
<stop stop-color="#A903D2"/>
<stop offset="1" stop-color="#410095"/>
</linearGradient>
<linearGradient id="paint3_linear_395_1724" x1="437.536" y1="59.8854" x2="372.236" y2="130.238" gradientUnits="userSpaceOnUse">
<stop stop-color="#EA4F0D"/>
<stop offset="1" stop-color="#410095"/>
</linearGradient>
<linearGradient id="paint4_linear_395_1724" x1="317.649" y1="-10.7614" x2="216.48" y2="98.2356" gradientUnits="userSpaceOnUse">
<stop stop-color="#EA4F0D"/>
<stop offset="1" stop-color="#410095"/>
</linearGradient>
<linearGradient id="paint5_linear_395_1724" x1="216.649" y1="-27.1566" x2="317.818" y2="81.8404" gradientUnits="userSpaceOnUse">
<stop offset="0.416667" stop-color="#160D25"/>
<stop offset="1" stop-color="#160D25" stop-opacity="0"/>
</linearGradient>
<linearGradient id="paint6_linear_395_1724" x1="140.05" y1="0" x2="2.93673" y2="140.019" gradientUnits="userSpaceOnUse">
<stop stop-color="#EA4F0D"/>
<stop offset="1" stop-color="#410095"/>
</linearGradient>
</defs>
</svg>
