<svg width="26" height="27" viewBox="0 0 26 27" fill="none" xmlns="http://www.w3.org/2000/svg">
<path d="M3.87445 24.6158L4.26645 23.9764L3.87445 24.6158ZM1.89449 22.635L2.53404 22.2432L1.89449 22.635ZM24.1162 22.635L23.4767 22.2432L24.1162 22.635ZM22.1363 24.6158L21.7443 23.9764L22.1363 24.6158ZM22.1363 5.98416L21.7443 6.62356L22.1363 5.98416ZM24.1162 7.96501L23.4767 8.35676L24.1162 7.96501ZM3.87445 5.98416L4.26645 6.62356L3.87445 5.98416ZM1.89449 7.96501L2.53404 8.35676L1.89449 7.96501ZM20.774 2.15574L21.3154 1.63669V1.63669L20.774 2.15574ZM3.2228 2.56895L3.67577 3.16671V3.16671L3.2228 2.56895ZM2.0356 3.8072L2.65101 4.23589L2.0356 3.8072ZM21.4016 5.25639H22.1516L22.1516 5.25268L21.4016 5.25639ZM20.6383 15.2864C21.0525 15.2864 21.3883 14.9506 21.3883 14.5364C21.3883 14.1222 21.0525 13.7864 20.6383 13.7864V15.2864ZM17.367 13.7864C16.9528 13.7864 16.617 14.1222 16.617 14.5364C16.617 14.9506 16.9528 15.2864 17.367 15.2864V13.7864ZM11.2062 5.85H14.8046V4.35H11.2062V5.85ZM14.8046 24.75H11.2062V26.25H14.8046V24.75ZM11.2062 24.75C9.22846 24.75 7.79786 24.7492 6.67976 24.6429C5.57283 24.5376 4.84987 24.3341 4.26645 23.9764L3.48245 25.2552C4.34121 25.7817 5.32092 26.0204 6.53772 26.1361C7.74333 26.2508 9.25751 26.25 11.2062 26.25V24.75ZM0.260723 15.3C0.260723 17.2495 0.259932 18.7643 0.374557 19.9704C0.490242 21.1877 0.728748 22.1677 1.25493 23.0267L2.53404 22.2432C2.17646 21.6595 1.97309 20.936 1.86783 19.8285C1.76151 18.7099 1.76072 17.2786 1.76072 15.3H0.260723ZM4.26645 23.9764C3.56041 23.5436 2.96675 22.9497 2.53404 22.2432L1.25493 23.0267C1.81125 23.935 2.57455 24.6986 3.48245 25.2552L4.26645 23.9764ZM14.8046 26.25C16.7532 26.25 18.2674 26.2508 19.473 26.1361C20.6898 26.0204 21.6695 25.7817 22.5283 25.2552L21.7443 23.9764C21.1609 24.3341 20.4379 24.5376 19.331 24.6429C18.2129 24.7492 16.7823 24.75 14.8046 24.75V26.25ZM23.4767 22.2432C23.044 22.9497 22.4503 23.5436 21.7443 23.9764L22.5283 25.2552C23.4362 24.6986 24.1995 23.935 24.7558 23.0267L23.4767 22.2432ZM21.7443 6.62356C22.4503 7.05642 23.044 7.65033 23.4767 8.35676L24.7558 7.57326C24.1995 6.66502 23.4362 5.90137 22.5283 5.34476L21.7443 6.62356ZM11.2062 4.35C9.25751 4.35 7.74333 4.34921 6.53772 4.46389C5.32092 4.57964 4.34121 4.81827 3.48245 5.34476L4.26645 6.62356C4.84987 6.26588 5.57283 6.06244 6.67976 5.95715C7.79786 5.85079 9.22846 5.85 11.2062 5.85V4.35ZM1.76072 15.3C1.76072 13.3214 1.76151 11.8901 1.86783 10.7715C1.97309 9.66396 2.17646 8.94054 2.53404 8.35676L1.25493 7.57326C0.728748 8.43229 0.490242 9.41231 0.374557 10.6296C0.259932 11.8357 0.260723 13.3505 0.260723 15.3H1.76072ZM3.48245 5.34476C2.57455 5.90137 1.81125 6.66502 1.25493 7.57326L2.53404 8.35676C2.96675 7.65033 3.56041 7.05642 4.26645 6.62356L3.48245 5.34476ZM10.6701 2.25H17.1097V0.75H10.6701V2.25ZM17.1097 2.25C18.1436 2.25 18.8405 2.25173 19.3608 2.3247C19.8563 2.39418 20.0794 2.51497 20.2326 2.67479L21.3154 1.63669C20.8399 1.14077 20.2428 0.933694 19.5691 0.839234C18.9205 0.74827 18.0995 0.75 17.1097 0.75V2.25ZM10.6701 0.75C8.67528 0.75 7.11636 0.748881 5.88204 0.888362C4.63175 1.02965 3.62544 1.32282 2.76982 1.97119L3.67577 3.16671C4.23078 2.74613 4.93589 2.50483 6.05047 2.37888C7.18104 2.25112 8.64046 2.25 10.6701 2.25V0.75ZM1.76072 11.5748C1.76072 9.45997 1.76167 7.93166 1.88482 6.74613C2.00669 5.57286 2.24147 4.82381 2.65101 4.23589L1.42019 3.37852C0.804855 4.26187 0.52719 5.29784 0.392846 6.59115C0.259775 7.8722 0.260723 9.49203 0.260723 11.5748H1.76072ZM2.76982 1.97119C2.25075 2.36454 1.79553 2.83969 1.42019 3.37852L2.65101 4.23589C2.93765 3.82439 3.2837 3.46381 3.67577 3.16671L2.76982 1.97119ZM22.1516 5.25268C22.1476 4.43942 22.13 3.74789 22.0309 3.17878C21.9284 2.5906 21.7286 2.06771 21.3154 1.63669L20.2326 2.67479C20.372 2.82014 20.482 3.02798 20.5531 3.43626C20.6276 3.86358 20.6475 4.43419 20.6516 5.26009L22.1516 5.25268ZM0.260723 11.5748C0.260723 12.7508 0.236552 13.8154 0.260976 14.7202L1.76043 14.6798C1.73667 13.7994 1.76072 12.8036 1.76072 11.5748H0.260723ZM13.3458 14.5364C13.3458 16.7578 15.1458 18.5591 17.367 18.5591V17.0591C15.9749 17.0591 14.8458 15.93 14.8458 14.5364H13.3458ZM14.8458 14.5364C14.8458 13.1428 15.9749 12.0137 17.367 12.0137V10.5137C15.1458 10.5137 13.3458 12.315 13.3458 14.5364H14.8458ZM20.6383 13.7864H17.367V15.2864H20.6383V13.7864ZM14.8046 5.85C16.4636 5.85 17.7407 5.85032 18.7762 5.91425C19.8109 5.97812 20.5476 6.10319 21.1352 6.32647L21.668 4.92427C20.8729 4.62218 19.9615 4.48457 18.8686 4.4171C17.7765 4.34968 16.4464 4.35 14.8046 4.35V5.85ZM21.1352 6.32647C21.3558 6.41029 21.5565 6.50842 21.7443 6.62356L22.5283 5.34476C22.2566 5.17822 21.9714 5.03954 21.668 4.92427L21.1352 6.32647ZM20.6516 5.25639V5.62537H22.1516V5.25639H20.6516ZM17.367 12.0137H24.9333V10.5137H17.367V12.0137ZM25.75 15.3C25.75 13.6489 25.7503 12.3129 25.6819 11.2169L24.1848 11.3104C24.2497 12.3491 24.25 13.6314 24.25 15.3H25.75ZM25.6819 11.2169C25.5883 9.719 25.3626 8.56395 24.7558 7.57326L23.4767 8.35676C23.8905 9.03236 24.0961 9.8912 24.1848 11.3104L25.6819 11.2169ZM24.25 15.3C24.25 16.2447 24.25 17.0676 24.2379 17.7967L25.7377 17.8216C25.75 17.0776 25.75 16.2411 25.75 15.3H24.25ZM24.2379 17.7967C24.1989 20.1439 24.0282 21.3429 23.4767 22.2432L24.7558 23.0267C25.5476 21.7341 25.6992 20.1381 25.7377 17.8216L24.2379 17.7967ZM24.9878 17.0591H17.367V18.5591H24.9878V17.0591Z" fill="#A4A4A4"/>
</svg>
